<?xml version="1.0" encoding="utf-8"?>
<svg viewBox="0 45 550 380" xmlns="http://www.w3.org/2000/svg">
  <defs>
    <linearGradient x1="86.04105" y1="235" x2="463.95895" y2="235" gradientUnits="userSpaceOnUse" id="color-11797744624">
      <stop offset="0" style="stop-color: rgb(165, 204, 130);"/>
      <stop offset="1" style="stop-color: rgb(0, 70, 127);"/>
    </linearGradient>
  </defs>
  <g fill="url(#color-11797744624)" fill-rule="none" stroke="none" stroke-width="1" stroke-linecap="butt" stroke-linejoin="miter" stroke-miterlimit="10" stroke-dasharray="" stroke-dashoffset="0" font-family="none" font-weight="none" font-size="none" text-anchor="none" style="mix-blend-mode: normal">
    <g data-paper-data="{&quot;isGlobalGroup&quot;:true,&quot;bounds&quot;:{&quot;x&quot;:86.04104627030614,&quot;y&quot;:115,&quot;width&quot;:377.9179074593877,&quot;height&quot;:240}}">
      <g data-paper-data="{&quot;isPrimaryText&quot;:true}" fill-rule="nonzero">
        <path d="M95.53973,303.18902h15.62964v-8.63516h-25.12832v60.44614h9.49868v-24.95562h12.26193v-8.63516h-12.26193z" data-paper-data="{&quot;glyphName&quot;:&quot;F&quot;,&quot;glyphIndex&quot;:0,&quot;firstGlyphOfWord&quot;:true,&quot;word&quot;:1}"/>
        <path d="M135.69323,294.55386h-13.90261l-9.67138,60.44614h8.72151l1.64068,-10.96666h11.65747l1.64068,10.96666h9.58503zM128.26699,305.26146l4.57664,30.56848h-9.15327z" data-paper-data="{&quot;glyphName&quot;:&quot;A&quot;,&quot;glyphIndex&quot;:1,&quot;word&quot;:1}"/>
        <path d="M179.30081,355c-0.94987,-2.24514 -1.03622,-4.40393 -1.03622,-7.33989v-9.32598c0,-6.30367 -1.55433,-10.88031 -6.30367,-12.86639c4.23123,-1.98609 6.21732,-6.04461 6.21732,-12.26193v-4.74934c0,-9.32598 -4.23123,-13.90261 -14.07532,-13.90261h-14.33437v60.44614h9.49868v-24.61021h3.28136c4.31758,0 6.21732,2.07244 6.21732,7.6853v9.49868c0,4.92204 0.34541,5.87191 0.86352,7.42624zM163.84386,303.18902c3.36771,0 4.83569,1.89974 4.83569,6.21732v5.95826c0,4.83569 -2.15879,6.39002 -5.69921,6.39002h-3.71312v-18.5656z" data-paper-data="{&quot;glyphName&quot;:&quot;R&quot;,&quot;glyphIndex&quot;:2,&quot;word&quot;:1}"/>
        <path d="M205.5517,294.55386h-13.90261l-9.67138,60.44614h8.72151l1.64068,-10.96666h11.65747l1.64068,10.96666h9.58503zM198.12546,305.26146l4.57664,30.56848h-9.15327z" data-paper-data="{&quot;glyphName&quot;:&quot;A&quot;,&quot;glyphIndex&quot;:3,&quot;word&quot;:1}"/>
        <path d="M219.02256,294.55386v8.63516h17.18397l-18.04749,43.34852v8.46246h27.80522v-8.63516h-18.04749l18.04749,-43.34852v-8.46246z" data-paper-data="{&quot;glyphName&quot;:&quot;Z&quot;,&quot;glyphIndex&quot;:4,&quot;lastGlyphOfWord&quot;:true,&quot;word&quot;:1}"/>
        <path d="M265.65244,294.55386v60.44614h6.73543v-23.83305h5.95826c9.58503,0 14.07532,-5.00839 14.07532,-14.59343v-7.25354c0,-9.15327 -4.05853,-14.76613 -13.55721,-14.76613zM272.38786,325.12234v-24.43751h6.47637c4.92204,0 6.90813,2.76325 6.90813,8.28976v8.0307c0,5.78556 -2.41785,8.11705 -7.42624,8.11705z" data-paper-data="{&quot;glyphName&quot;:&quot;P&quot;,&quot;glyphIndex&quot;:5,&quot;firstGlyphOfWord&quot;:true,&quot;fontStyleEffect&quot;:true,&quot;word&quot;:2}"/>
        <path d="M318.32693,342.82442l2.33149,12.17558h6.73543l-11.57112,-60.44614h-9.75773l-11.57112,60.44614h6.21732l2.33149,-12.17558zM310.55528,302.1528l6.82178,34.88606h-13.47085z" data-paper-data="{&quot;glyphName&quot;:&quot;A&quot;,&quot;glyphIndex&quot;:6,&quot;fontStyleEffect&quot;:true,&quot;word&quot;:2}"/>
        <path d="M347.25473,355v-54.31518h11.13936v-6.13097h-29.01415v6.13097h11.13936v54.31518z" data-paper-data="{&quot;glyphName&quot;:&quot;T&quot;,&quot;glyphIndex&quot;:7,&quot;fontStyleEffect&quot;:true,&quot;word&quot;:2}"/>
        <path d="M385.11992,327.79924v27.20076h6.73543v-60.44614h-6.73543v27.20076h-14.85248v-27.20076h-6.73543v60.44614h6.73543v-27.20076z" data-paper-data="{&quot;glyphName&quot;:&quot;H&quot;,&quot;glyphIndex&quot;:8,&quot;fontStyleEffect&quot;:true,&quot;word&quot;:2}"/>
        <path d="M421.08537,342.82442l2.33149,12.17558h6.73543l-11.57112,-60.44614h-9.75773l-11.57112,60.44614h6.21732l2.33149,-12.17558zM413.31372,302.1528l6.82178,34.88606h-13.47085z" data-paper-data="{&quot;glyphName&quot;:&quot;A&quot;,&quot;glyphIndex&quot;:9,&quot;fontStyleEffect&quot;:true,&quot;word&quot;:2}"/>
        <path d="M441.50753,306.12498l15.45694,48.87502h6.99448v-60.44614h-5.95826v43.69392l-13.98896,-43.69392h-8.54881v60.44614h6.04461z" data-paper-data="{&quot;glyphName&quot;:&quot;N&quot;,&quot;glyphIndex&quot;:10,&quot;lastGlyphOfWord&quot;:true,&quot;fontStyleEffect&quot;:true,&quot;word&quot;:2}"/>
      </g>
      <g data-paper-data="{&quot;isIcon&quot;:&quot;true&quot;,&quot;iconType&quot;:&quot;icon&quot;,&quot;rawIconId&quot;:&quot;50966&quot;,&quot;selectedEffects&quot;:{&quot;container&quot;:&quot;&quot;,&quot;transformation&quot;:&quot;&quot;,&quot;pattern&quot;:&quot;&quot;},&quot;isDetailed&quot;:false,&quot;fillRule&quot;:&quot;evenodd&quot;,&quot;bounds&quot;:{&quot;x&quot;:203.11793327235478,&quot;y&quot;:115,&quot;width&quot;:143.76413345529045,&quot;height&quot;:148.2495113715433},&quot;iconStyle&quot;:&quot;standalone&quot;,&quot;suitableAsStandaloneIcon&quot;:true}" fill-rule="evenodd">
        <path d="M287.71968,187.46103c18.89424,0 34.45466,-14.27844 36.47466,-32.63665l0.02704,-0.20995c0.1177,1.31062 0.17973,2.63714 0.17973,3.97957c0,24.07786 -19.51932,43.59559 -43.60037,43.59559c-24.07786,0 -43.59559,-19.51773 -43.59559,-43.59559c0,-23.61024 18.76699,-42.83849 42.1959,-43.5781l0.07953,-0.01591c-16.30003,3.7394 -28.45666,18.33436 -28.45666,35.76687c0,20.26529 16.42887,36.69416 36.69576,36.69416zM327.51289,142.25818c-0.00875,-0.00923 -0.01734,-0.01861 -0.02608,-0.02783l0.00795,-0.01749c0.00604,0.01511 0.01209,0.03022 0.01813,0.04533zM221.67607,193.18053c-2.61678,-6.36096 -4.05703,-13.37039 -4.05703,-20.69617c0.00159,-21.71429 12.66386,-41.32635 31.00728,-49.28015c-10.83679,7.95317 -17.71659,22.59648 -17.71659,37.91561c0,27.65343 22.41891,49.70015 50.07393,49.70015c27.65661,0 50.07553,-22.38392 50.07553,-50.03735c0,-6.55166 -1.25782,-12.79015 -3.54631,-18.52443c12.01396,12.84884 19.36918,30.11578 19.36918,49.09335c0,39.69873 -32.18335,71.89797 -71.88207,71.89797c-39.69873,0 -71.88207,-32.15312 -71.88207,-71.85026c0,-12.08506 2.9823,-23.40665 8.24863,-33.40171l0.00477,0.09066c-0.26085,1.94048 -0.39605,3.96367 -0.39605,5.97572c0,11.01652 4.03318,22.75308 10.7008,29.11659zM248.62632,123.20419l0.00382,-0.00168h-0.00159zM262.79723,164.11324c-0.06123,-0.12566 -0.12168,-0.25194 -0.18132,-0.37856l0.11293,0.33243c0.02274,0.01543 0.04565,0.03086 0.06839,0.04613zM289.93374,181.08767c-11.92775,0 -22.23743,-6.93038 -27.1365,-16.97443c5.87011,3.9492 12.93696,6.57378 20.54205,6.57378c17.08688,0 31.46155,-12.48699 35.6417,-26.79819c0.73675,3.17507 1.12882,4.75895 1.12882,7.60016c0,16.66268 -13.51019,29.59869 -30.17606,29.59869zM318.98097,143.88882c0.00096,-0.00302 0.00175,-0.00604 0.00271,-0.00907h-0.00477c0.00064,0.00302 0.00143,0.00604 0.00207,0.00907z" data-paper-data="{&quot;isPathIcon&quot;:true}"/>
      </g>
    </g>
  </g>
</svg>